<?xml version="1.0" standalone="no"?>
<!DOCTYPE svg PUBLIC "-//W3C//DTD SVG 20010904//EN"
 "http://www.w3.org/TR/2001/REC-SVG-20010904/DTD/svg10.dtd">
<svg version="1.0" xmlns="http://www.w3.org/2000/svg"
 width="4535.000000pt" height="4535.000000pt" viewBox="0 0 4535.000000 4535.000000"
 preserveAspectRatio="xMidYMid meet">
<metadata>
Created by potrace 1.14, written by Peter Selinger 2001-2017
</metadata>
<g transform="translate(0.000000,4535.000000) scale(0.100000,-0.100000)"
fill="#000000" stroke="none">
<path d="M27066 37379 c-1025 -65 -2201 -509 -2941 -1110 -68 -55 -74 -57
-216 -93 -282 -70 -538 -163 -805 -294 -214 -106 -295 -153 -514 -298 -653
-432 -1225 -1053 -1670 -1809 -105 -179 -300 -574 -386 -780 -86 -209 -221
-616 -275 -830 l-43 -170 -184 -330 c-723 -1290 -963 -1857 -1171 -2760 -247
-1073 -211 -1817 121 -2525 67 -142 180 -334 357 -603 188 -287 247 -390 300
-523 64 -158 75 -218 75 -389 -1 -171 -20 -263 -94 -446 -49 -123 -90 -182
-285 -409 -241 -281 -310 -380 -465 -665 -51 -93 -132 -235 -180 -315 -103
-171 -149 -261 -220 -430 -72 -173 -171 -367 -323 -635 -195 -344 -284 -533
-370 -790 -41 -121 -91 -260 -112 -310 -64 -154 -179 -372 -310 -585 -241
-393 -315 -570 -389 -937 -32 -154 -73 -264 -202 -535 -255 -537 -323 -787
-339 -1251 -9 -267 -41 -428 -156 -769 -38 -115 -69 -217 -69 -228 0 -36 26
-72 101 -145 57 -54 80 -87 112 -152 35 -74 40 -94 45 -177 5 -106 -6 -169
-49 -264 -61 -136 -112 -197 -449 -532 -179 -179 -373 -376 -430 -439 -211
-231 -294 -271 -1170 -565 -683 -228 -847 -269 -1085 -269 -350 0 -564 119
-1339 746 l-208 169 -191 49 c-504 128 -878 195 -1277 229 -69 6 -262 10 -430
9 -168 -2 -372 -2 -455 0 -1159 17 -4062 486 -5265 851 -128 39 -232 55 -2100
324 -1107 160 -1969 280 -1974 275 -6 -5 -10 -290 -12 -701 -1 -428 -6 -722
-12 -768 -8 -52 -11 -1165 -12 -3652 l0 -3578 22675 0 22675 0 0 1574 0 1575
-207 -1 c-388 0 -565 39 -968 217 -295 130 -436 173 -647 195 -233 24 -530 2
-878 -66 -166 -33 -281 -69 -550 -174 -393 -153 -530 -190 -707 -190 -203 0
-350 62 -515 218 -321 303 -443 745 -398 1447 6 88 24 295 40 461 56 571 61
640 67 929 8 411 -20 687 -97 958 -72 254 -145 382 -305 535 -219 210 -534
371 -1130 576 -387 134 -537 188 -665 238 -351 139 -577 287 -683 448 -20 30
-68 132 -106 225 -83 205 -155 366 -376 840 -286 616 -430 958 -536 1276 -176
526 -211 894 -114 1172 100 285 256 1101 311 1632 22 206 24 581 5 685 -8 41
-13 84 -12 95 1 11 5 281 10 600 13 889 15 905 227 1565 81 252 104 362 111
516 4 100 2 156 -12 235 -36 216 -145 510 -226 610 -92 112 -180 307 -429 948
-238 614 -323 803 -449 999 -72 113 -86 164 -85 307 2 136 30 267 121 560 105
336 141 462 167 585 82 388 53 660 -100 915 -91 154 -122 235 -131 346 -8 104
8 181 82 400 87 256 100 321 99 499 0 261 -47 415 -259 850 -160 328 -219 472
-261 635 -25 99 -27 129 -29 300 -2 178 -3 195 -29 270 -97 283 -329 576 -655
824 -220 167 -418 290 -976 601 -170 95 -382 214 -470 265 -88 51 -201 113
-251 138 -407 204 -1052 397 -1744 521 -512 92 -876 193 -1921 530 -752 242
-1509 449 -1810 495 -249 38 -512 48 -793 30z m-9040 -18136 c-39 -781 -94
-1059 -248 -1268 -96 -128 -209 -225 -588 -505 -309 -228 -429 -320 -608 -463
-111 -89 -152 -110 -152 -79 0 5 28 51 63 103 99 148 194 347 332 694 70 176
152 368 182 427 112 220 246 375 518 598 180 148 283 250 354 350 53 74 141
241 141 267 0 7 3 13 6 13 4 0 4 -62 0 -137z"/>
</g>
</svg>
